<svg width="44" height="37" viewBox="0 0 44 37" fill="none" xmlns="http://www.w3.org/2000/svg">
<rect x="4.01001" width="37" height="37" rx="9" fill="#DBDCDD"/>
<g style="mix-blend-mode:multiply">
<path fill-rule="evenodd" clip-rule="evenodd" d="M18.843 27.6195C17.5225 28.7111 15.7759 30.1551 12.89 30.1551H2.52999C1.50827 30.1551 0.679993 29.3268 0.679993 28.3051C0.679993 27.2834 1.50827 26.4551 2.52999 26.4551H12.89C14.4263 26.4551 15.2355 25.7915 16.662 24.6219C16.6863 24.602 16.7107 24.582 16.7354 24.5618C18.2368 23.3311 20.1858 21.8301 23.62 21.8301C26.975 21.8301 28.8759 23.272 30.4072 24.4337C30.4445 24.462 30.4815 24.49 30.5184 24.518C31.9677 25.6159 33.1289 26.4551 35.46 26.4551H42.12C43.1417 26.4551 43.97 27.2834 43.97 28.3051C43.97 29.3268 43.1417 30.1551 42.12 30.1551H35.46C31.8711 30.1551 29.8873 28.6818 28.2841 27.4672L28.2708 27.4571C26.7763 26.3249 25.7271 25.5301 23.62 25.5301C21.5042 25.5301 20.4006 26.3416 19.0809 27.4234C19.0031 27.4871 18.9238 27.5527 18.843 27.6195Z" fill="#00B1FA"/>
</g>
<g style="mix-blend-mode:multiply">
<path fill-rule="evenodd" clip-rule="evenodd" d="M0.679993 17.7599C0.679993 16.7382 1.50827 15.9099 2.52999 15.9099H42.12C43.1417 15.9099 43.97 16.7382 43.97 17.7599C43.97 18.7816 43.1417 19.6099 42.12 19.6099H2.52999C1.50827 19.6099 0.679993 18.7816 0.679993 17.7599Z" fill="#90DFFC"/>
</g>
</svg>
